<mxfile host="65bd71144e">
    <diagram id="X4-u8jj6ZqLGWpA-01kV" name="Page-1">
        <mxGraphModel dx="1757" dy="455" grid="1" gridSize="10" guides="1" tooltips="1" connect="1" arrows="1" fold="1" page="1" pageScale="1" pageWidth="1100" pageHeight="850" math="0" shadow="0">
            <root>
                <mxCell id="0"/>
                <mxCell id="1" parent="0"/>
                <mxCell id="2" value="" style="endArrow=none;html=1;strokeWidth=3;strokeColor=#CCCCCC;sketch=1;curveFitting=1;jiggle=2;opacity=70;" edge="1" parent="1">
                    <mxGeometry width="50" height="50" relative="1" as="geometry">
                        <mxPoint x="-30" y="332" as="sourcePoint"/>
                        <mxPoint x="286" y="331.71" as="targetPoint"/>
                    </mxGeometry>
                </mxCell>
                <mxCell id="3" value="&lt;h1&gt;&lt;font face=&quot;Comic Sans MS&quot;&gt;AA&lt;font style=&quot;color: rgb(0, 153, 0);&quot;&gt;C&lt;/font&gt;TG&lt;/font&gt;&lt;/h1&gt;" style="edgeLabel;html=1;align=center;verticalAlign=middle;resizable=0;points=[];" vertex="1" connectable="0" parent="2">
                    <mxGeometry x="-0.7533" y="5" relative="1" as="geometry">
                        <mxPoint x="26" y="1" as="offset"/>
                    </mxGeometry>
                </mxCell>
                <mxCell id="4" value="&lt;h1&gt;&lt;font face=&quot;Comic Sans MS&quot;&gt;&lt;font style=&quot;color: rgb(0, 0, 0);&quot;&gt;TA&lt;/font&gt;&lt;font style=&quot;color: rgb(0, 153, 0);&quot;&gt;C&lt;/font&gt;A&lt;/font&gt;&lt;/h1&gt;" style="edgeLabel;html=1;align=center;verticalAlign=middle;resizable=0;points=[];" vertex="1" connectable="0" parent="2">
                    <mxGeometry x="-0.7533" y="5" relative="1" as="geometry">
                        <mxPoint x="95" y="1" as="offset"/>
                    </mxGeometry>
                </mxCell>
                <mxCell id="5" value="&lt;h1&gt;&lt;font face=&quot;Comic Sans MS&quot;&gt;T&lt;font style=&quot;color: rgb(0, 153, 0);&quot;&gt;C&lt;/font&gt;GAG&lt;/font&gt;&lt;/h1&gt;" style="edgeLabel;html=1;align=center;verticalAlign=middle;resizable=0;points=[];" vertex="1" connectable="0" parent="2">
                    <mxGeometry x="-0.7533" y="5" relative="1" as="geometry">
                        <mxPoint x="230" y="3" as="offset"/>
                    </mxGeometry>
                </mxCell>
                <mxCell id="6" value="&lt;h1&gt;&lt;font face=&quot;Comic Sans MS&quot;&gt;A&lt;font style=&quot;color: rgb(0, 153, 0);&quot;&gt;C&lt;/font&gt;TG&lt;/font&gt;&lt;/h1&gt;" style="edgeLabel;html=1;align=center;verticalAlign=middle;resizable=0;points=[];" vertex="1" connectable="0" parent="2">
                    <mxGeometry x="-0.7533" y="5" relative="1" as="geometry">
                        <mxPoint x="161" y="3" as="offset"/>
                    </mxGeometry>
                </mxCell>
                <mxCell id="7" value="" style="line;strokeWidth=2;direction=south;html=1;sketch=1;curveFitting=1;jiggle=2;fillColor=#f5f5f5;gradientColor=#b3b3b3;strokeColor=#666666;" vertex="1" parent="1">
                    <mxGeometry x="33.22000000000003" y="296" width="10" height="13" as="geometry"/>
                </mxCell>
                <mxCell id="8" value="&lt;div&gt;&lt;br&gt;&lt;/div&gt;&lt;div&gt;&lt;br&gt;&lt;/div&gt;&lt;div&gt;&lt;br&gt;&lt;/div&gt;&lt;div&gt;&lt;br&gt;&lt;/div&gt;&lt;div&gt;&lt;br&gt;&lt;/div&gt;&lt;div&gt;&lt;br&gt;&lt;/div&gt;&lt;div&gt;&lt;br&gt;&lt;/div&gt;&lt;div&gt;&lt;br&gt;&lt;/div&gt;&lt;div&gt;&lt;br&gt;&lt;/div&gt;&lt;div&gt;&lt;br&gt;&lt;/div&gt;&lt;div&gt;&lt;br&gt;&lt;/div&gt;&lt;div&gt;&lt;br&gt;&lt;/div&gt;" style="rhombus;whiteSpace=wrap;html=1;fillColor=#ffcd28;strokeColor=#d79b00;sketch=1;curveFitting=1;jiggle=2;gradientColor=#ffa500;" vertex="1" parent="1">
                    <mxGeometry x="25.220000000000027" y="271" width="26" height="24" as="geometry"/>
                </mxCell>
                <mxCell id="9" value="" style="shape=waypoint;sketch=0;fillStyle=solid;size=6;pointerEvents=1;points=[];fillColor=none;resizable=0;rotatable=0;perimeter=centerPerimeter;snapToPoint=1;strokeColor=#CCCCCC;strokeWidth=0;" vertex="1" parent="1">
                    <mxGeometry x="287" y="322" width="20" height="20" as="geometry"/>
                </mxCell>
                <mxCell id="10" value="" style="shape=waypoint;sketch=0;fillStyle=solid;size=6;pointerEvents=1;points=[];fillColor=none;resizable=0;rotatable=0;perimeter=centerPerimeter;snapToPoint=1;strokeColor=#CCCCCC;strokeWidth=0;" vertex="1" parent="1">
                    <mxGeometry x="297" y="322" width="20" height="20" as="geometry"/>
                </mxCell>
                <mxCell id="11" value="" style="shape=waypoint;sketch=0;fillStyle=solid;size=6;pointerEvents=1;points=[];fillColor=none;resizable=0;rotatable=0;perimeter=centerPerimeter;snapToPoint=1;strokeColor=#CCCCCC;strokeWidth=0;" vertex="1" parent="1">
                    <mxGeometry x="306" y="322" width="20" height="20" as="geometry"/>
                </mxCell>
                <mxCell id="12" value="" style="shape=partialRectangle;whiteSpace=wrap;html=1;bottom=1;right=1;left=1;top=0;fillColor=none;routingCenterX=-0.5;sketch=1;curveFitting=1;jiggle=2;flipV=1;strokeColor=#808080;" vertex="1" parent="1">
                    <mxGeometry x="-4.779999999999973" y="309" width="140" height="13" as="geometry"/>
                </mxCell>
                <mxCell id="13" value="" style="line;strokeWidth=2;direction=south;html=1;sketch=1;curveFitting=1;jiggle=2;fillColor=#f5f5f5;gradientColor=#b3b3b3;strokeColor=#666666;" vertex="1" parent="1">
                    <mxGeometry x="107.22000000000003" y="297" width="10" height="13" as="geometry"/>
                </mxCell>
                <mxCell id="14" value="&lt;div&gt;&lt;br&gt;&lt;/div&gt;&lt;div&gt;&lt;br&gt;&lt;/div&gt;&lt;div&gt;&lt;br&gt;&lt;/div&gt;&lt;div&gt;&lt;br&gt;&lt;/div&gt;&lt;div&gt;&lt;br&gt;&lt;/div&gt;&lt;div&gt;&lt;br&gt;&lt;/div&gt;&lt;div&gt;&lt;br&gt;&lt;/div&gt;&lt;div&gt;&lt;br&gt;&lt;/div&gt;&lt;div&gt;&lt;br&gt;&lt;/div&gt;&lt;div&gt;&lt;br&gt;&lt;/div&gt;&lt;div&gt;&lt;br&gt;&lt;/div&gt;&lt;div&gt;&lt;br&gt;&lt;/div&gt;" style="rhombus;whiteSpace=wrap;html=1;fillColor=#3399FF;strokeColor=#3399FF;sketch=1;curveFitting=1;jiggle=2;gradientColor=#7ea6e0;rotation=87;fillStyle=zigzag;" vertex="1" parent="1">
                    <mxGeometry x="98.22000000000003" y="270" width="26" height="24" as="geometry"/>
                </mxCell>
                <mxCell id="15" value="" style="shape=partialRectangle;whiteSpace=wrap;html=1;bottom=1;right=1;left=1;top=0;fillColor=none;routingCenterX=-0.5;sketch=1;curveFitting=1;jiggle=2;flipV=1;strokeColor=#808080;" vertex="1" parent="1">
                    <mxGeometry x="140" y="309" width="140.22" height="13" as="geometry"/>
                </mxCell>
                <mxCell id="16" value="" style="line;strokeWidth=2;direction=south;html=1;sketch=1;curveFitting=1;jiggle=2;fillColor=#f5f5f5;gradientColor=#b3b3b3;strokeColor=#666666;" vertex="1" parent="1">
                    <mxGeometry x="223.22000000000003" y="297" width="10" height="13" as="geometry"/>
                </mxCell>
                <mxCell id="17" value="&lt;div&gt;&lt;br&gt;&lt;/div&gt;&lt;div&gt;&lt;br&gt;&lt;/div&gt;&lt;div&gt;&lt;br&gt;&lt;/div&gt;&lt;div&gt;&lt;br&gt;&lt;/div&gt;&lt;div&gt;&lt;br&gt;&lt;/div&gt;&lt;div&gt;&lt;br&gt;&lt;/div&gt;&lt;div&gt;&lt;br&gt;&lt;/div&gt;&lt;div&gt;&lt;br&gt;&lt;/div&gt;&lt;div&gt;&lt;br&gt;&lt;/div&gt;&lt;div&gt;&lt;br&gt;&lt;/div&gt;&lt;div&gt;&lt;br&gt;&lt;/div&gt;&lt;div&gt;&lt;br&gt;&lt;/div&gt;" style="rhombus;whiteSpace=wrap;html=1;fillColor=#ffcd28;strokeColor=#d79b00;sketch=1;curveFitting=1;jiggle=2;gradientColor=#ffa500;" vertex="1" parent="1">
                    <mxGeometry x="213.22000000000003" y="271" width="26" height="24" as="geometry"/>
                </mxCell>
                <mxCell id="18" value="" style="line;strokeWidth=2;direction=south;html=1;sketch=1;curveFitting=1;jiggle=2;fillColor=#f5f5f5;gradientColor=#b3b3b3;strokeColor=#666666;" vertex="1" parent="1">
                    <mxGeometry x="161.22000000000003" y="298" width="10" height="13" as="geometry"/>
                </mxCell>
                <mxCell id="19" value="&lt;div&gt;&lt;br&gt;&lt;/div&gt;&lt;div&gt;&lt;br&gt;&lt;/div&gt;&lt;div&gt;&lt;br&gt;&lt;/div&gt;&lt;div&gt;&lt;br&gt;&lt;/div&gt;&lt;div&gt;&lt;br&gt;&lt;/div&gt;&lt;div&gt;&lt;br&gt;&lt;/div&gt;&lt;div&gt;&lt;br&gt;&lt;/div&gt;&lt;div&gt;&lt;br&gt;&lt;/div&gt;&lt;div&gt;&lt;br&gt;&lt;/div&gt;&lt;div&gt;&lt;br&gt;&lt;/div&gt;&lt;div&gt;&lt;br&gt;&lt;/div&gt;&lt;div&gt;&lt;br&gt;&lt;/div&gt;" style="rhombus;whiteSpace=wrap;html=1;fillColor=#3399FF;strokeColor=#3399FF;sketch=1;curveFitting=1;jiggle=2;gradientColor=#7ea6e0;rotation=87;fillStyle=zigzag;" vertex="1" parent="1">
                    <mxGeometry x="152.22000000000003" y="271" width="26" height="24" as="geometry"/>
                </mxCell>
                <mxCell id="20" value="" style="endArrow=none;html=1;strokeWidth=3;strokeColor=#CCCCCC;sketch=1;curveFitting=1;jiggle=2;opacity=70;" edge="1" parent="1">
                    <mxGeometry width="50" height="50" relative="1" as="geometry">
                        <mxPoint x="326" y="333.29" as="sourcePoint"/>
                        <mxPoint x="500" y="333" as="targetPoint"/>
                    </mxGeometry>
                </mxCell>
                <mxCell id="21" value="&lt;h1&gt;&lt;font face=&quot;Comic Sans MS&quot;&gt;AA&lt;font style=&quot;color: rgb(0, 153, 0);&quot;&gt;C&lt;/font&gt;T&lt;font style=&quot;color: rgb(0, 153, 0);&quot;&gt;C&lt;/font&gt;&lt;/font&gt;&lt;/h1&gt;" style="edgeLabel;html=1;align=center;verticalAlign=middle;resizable=0;points=[];" vertex="1" connectable="0" parent="20">
                    <mxGeometry x="-0.7533" y="5" relative="1" as="geometry">
                        <mxPoint x="26" y="1" as="offset"/>
                    </mxGeometry>
                </mxCell>
                <mxCell id="22" value="&lt;h1&gt;&lt;font face=&quot;Comic Sans MS&quot;&gt;&lt;font style=&quot;color: rgb(0, 0, 0);&quot;&gt;TG&lt;/font&gt;&lt;font style=&quot;color: rgb(0, 153, 0);&quot;&gt;C&lt;/font&gt;A&lt;/font&gt;&lt;/h1&gt;" style="edgeLabel;html=1;align=center;verticalAlign=middle;resizable=0;points=[];" vertex="1" connectable="0" parent="20">
                    <mxGeometry x="-0.7533" y="5" relative="1" as="geometry">
                        <mxPoint x="95" y="1" as="offset"/>
                    </mxGeometry>
                </mxCell>
                <mxCell id="23" value="" style="shape=partialRectangle;whiteSpace=wrap;html=1;bottom=1;right=1;left=1;top=0;fillColor=none;routingCenterX=-0.5;sketch=1;curveFitting=1;jiggle=2;flipV=1;strokeColor=#808080;" vertex="1" parent="1">
                    <mxGeometry x="336" y="313" width="140" height="13" as="geometry"/>
                </mxCell>
                <mxCell id="24" value="" style="line;strokeWidth=2;direction=south;html=1;sketch=1;curveFitting=1;jiggle=2;fillColor=#f5f5f5;gradientColor=#b3b3b3;strokeColor=#666666;" vertex="1" parent="1">
                    <mxGeometry x="372" y="299" width="10" height="13" as="geometry"/>
                </mxCell>
                <mxCell id="25" value="&lt;div&gt;&lt;br&gt;&lt;/div&gt;&lt;div&gt;&lt;br&gt;&lt;/div&gt;&lt;div&gt;&lt;br&gt;&lt;/div&gt;&lt;div&gt;&lt;br&gt;&lt;/div&gt;&lt;div&gt;&lt;br&gt;&lt;/div&gt;&lt;div&gt;&lt;br&gt;&lt;/div&gt;&lt;div&gt;&lt;br&gt;&lt;/div&gt;&lt;div&gt;&lt;br&gt;&lt;/div&gt;&lt;div&gt;&lt;br&gt;&lt;/div&gt;&lt;div&gt;&lt;br&gt;&lt;/div&gt;&lt;div&gt;&lt;br&gt;&lt;/div&gt;&lt;div&gt;&lt;br&gt;&lt;/div&gt;" style="rhombus;whiteSpace=wrap;html=1;fillColor=#ffcd28;strokeColor=#d79b00;sketch=1;curveFitting=1;jiggle=2;gradientColor=#ffa500;" vertex="1" parent="1">
                    <mxGeometry x="364" y="274" width="26" height="24" as="geometry"/>
                </mxCell>
                <mxCell id="26" value="&lt;div&gt;&lt;br&gt;&lt;/div&gt;&lt;div&gt;&lt;br&gt;&lt;/div&gt;&lt;div&gt;&lt;br&gt;&lt;/div&gt;&lt;div&gt;&lt;br&gt;&lt;/div&gt;&lt;div&gt;&lt;br&gt;&lt;/div&gt;&lt;div&gt;&lt;br&gt;&lt;/div&gt;&lt;div&gt;&lt;br&gt;&lt;/div&gt;&lt;div&gt;&lt;br&gt;&lt;/div&gt;&lt;div&gt;&lt;br&gt;&lt;/div&gt;&lt;div&gt;&lt;br&gt;&lt;/div&gt;&lt;div&gt;&lt;br&gt;&lt;/div&gt;&lt;div&gt;&lt;br&gt;&lt;/div&gt;" style="rhombus;whiteSpace=wrap;html=1;fillColor=#3399FF;strokeColor=#3399FF;sketch=1;curveFitting=1;jiggle=2;gradientColor=#7ea6e0;rotation=87;fillStyle=zigzag;" vertex="1" parent="1">
                    <mxGeometry x="391" y="275" width="26" height="24" as="geometry"/>
                </mxCell>
                <mxCell id="27" value="" style="line;strokeWidth=2;direction=south;html=1;sketch=1;curveFitting=1;jiggle=2;fillColor=#f5f5f5;gradientColor=#b3b3b3;strokeColor=#666666;" vertex="1" parent="1">
                    <mxGeometry x="401" y="299" width="10" height="13" as="geometry"/>
                </mxCell>
                <mxCell id="28" value="" style="line;strokeWidth=2;direction=south;html=1;sketch=1;curveFitting=1;jiggle=2;fillColor=#f5f5f5;gradientColor=#b3b3b3;strokeColor=#666666;" vertex="1" parent="1">
                    <mxGeometry x="449" y="299" width="10" height="13" as="geometry"/>
                </mxCell>
                <mxCell id="29" value="" style="rhombus;whiteSpace=wrap;html=1;fillColor=#ffcd28;strokeColor=#d79b00;sketch=1;curveFitting=1;jiggle=2;gradientColor=#ffa500;" vertex="1" parent="1">
                    <mxGeometry x="441" y="275" width="26" height="24" as="geometry"/>
                </mxCell>
                <mxCell id="30" value="" style="line;strokeWidth=2;direction=south;html=1;sketch=1;curveFitting=1;jiggle=2;fillColor=#f5f5f5;gradientColor=#b3b3b3;strokeColor=#666666;" vertex="1" parent="1">
                    <mxGeometry x="36" y="396" width="10" height="13" as="geometry"/>
                </mxCell>
                <mxCell id="31" value="" style="rhombus;whiteSpace=wrap;html=1;fillColor=#ffcd28;strokeColor=#d79b00;sketch=1;curveFitting=1;jiggle=2;gradientColor=#ffa500;" vertex="1" parent="1">
                    <mxGeometry x="28" y="372" width="26" height="24" as="geometry"/>
                </mxCell>
                <mxCell id="32" value="&lt;font face=&quot;Comic Sans MS&quot; style=&quot;font-size: 24px; color: rgb(128, 128, 128);&quot;&gt;=&lt;/font&gt;" style="text;html=1;align=center;verticalAlign=middle;resizable=0;points=[];autosize=1;strokeColor=none;fillColor=none;" vertex="1" parent="1">
                    <mxGeometry x="58" y="382.5" width="40" height="40" as="geometry"/>
                </mxCell>
                <mxCell id="33" value="&lt;font style=&quot;color: rgb(128, 128, 128);&quot;&gt;&lt;b&gt;^&lt;/b&gt;&lt;/font&gt;" style="text;html=1;align=center;verticalAlign=middle;resizable=0;points=[];autosize=1;strokeColor=none;fillColor=none;" vertex="1" parent="1">
                    <mxGeometry x="63" y="381" width="30" height="30" as="geometry"/>
                </mxCell>
                <mxCell id="34" value="&lt;font style=&quot;font-size: 22px; color: rgb(128, 128, 128);&quot; face=&quot;Comic Sans MS&quot;&gt;&lt;b style=&quot;&quot;&gt;modified base&lt;/b&gt;&lt;/font&gt;" style="text;html=1;align=center;verticalAlign=middle;resizable=0;points=[];autosize=1;strokeColor=none;fillColor=none;" vertex="1" parent="1">
                    <mxGeometry x="82" y="381" width="170" height="40" as="geometry"/>
                </mxCell>
                <mxCell id="35" value="" style="line;strokeWidth=2;direction=south;html=1;sketch=1;curveFitting=1;jiggle=2;fillColor=#f5f5f5;gradientColor=#b3b3b3;strokeColor=#666666;" vertex="1" parent="1">
                    <mxGeometry x="35" y="461" width="10" height="13" as="geometry"/>
                </mxCell>
                <mxCell id="36" value="&lt;font face=&quot;Comic Sans MS&quot; style=&quot;font-size: 24px; color: rgb(128, 128, 128);&quot;&gt;=&lt;/font&gt;" style="text;html=1;align=center;verticalAlign=middle;resizable=0;points=[];autosize=1;strokeColor=none;fillColor=none;" vertex="1" parent="1">
                    <mxGeometry x="57" y="447.5" width="40" height="40" as="geometry"/>
                </mxCell>
                <mxCell id="37" value="&lt;font style=&quot;color: rgb(128, 128, 128);&quot;&gt;&lt;b&gt;^&lt;/b&gt;&lt;/font&gt;" style="text;html=1;align=center;verticalAlign=middle;resizable=0;points=[];autosize=1;strokeColor=none;fillColor=none;" vertex="1" parent="1">
                    <mxGeometry x="62" y="446" width="30" height="30" as="geometry"/>
                </mxCell>
                <mxCell id="38" value="&lt;font style=&quot;font-size: 22px; color: rgb(128, 128, 128);&quot; face=&quot;Comic Sans MS&quot;&gt;&lt;b style=&quot;&quot;&gt;canonical base&lt;/b&gt;&lt;/font&gt;" style="text;html=1;align=center;verticalAlign=middle;resizable=0;points=[];autosize=1;strokeColor=none;fillColor=none;" vertex="1" parent="1">
                    <mxGeometry x="78" y="444" width="180" height="40" as="geometry"/>
                </mxCell>
                <mxCell id="39" value="&lt;div&gt;&lt;br&gt;&lt;/div&gt;&lt;div&gt;&lt;br&gt;&lt;/div&gt;&lt;div&gt;&lt;br&gt;&lt;/div&gt;&lt;div&gt;&lt;br&gt;&lt;/div&gt;&lt;div&gt;&lt;br&gt;&lt;/div&gt;&lt;div&gt;&lt;br&gt;&lt;/div&gt;&lt;div&gt;&lt;br&gt;&lt;/div&gt;&lt;div&gt;&lt;br&gt;&lt;/div&gt;&lt;div&gt;&lt;br&gt;&lt;/div&gt;&lt;div&gt;&lt;br&gt;&lt;/div&gt;&lt;div&gt;&lt;br&gt;&lt;/div&gt;&lt;div&gt;&lt;br&gt;&lt;/div&gt;" style="rhombus;whiteSpace=wrap;html=1;fillColor=#3399FF;strokeColor=#3399FF;sketch=1;curveFitting=1;jiggle=2;gradientColor=#7ea6e0;rotation=87;fillStyle=zigzag;" vertex="1" parent="1">
                    <mxGeometry x="25.220000000000027" y="436" width="26" height="24" as="geometry"/>
                </mxCell>
            </root>
        </mxGraphModel>
    </diagram>
</mxfile>